<?xml version="1.0" encoding="UTF-8"?>
<svg id="Layer_1" data-name="Layer 1" xmlns="http://www.w3.org/2000/svg" viewBox="0 0 500 500">
  <defs>
    <style>
      .cls-1 {
        fill: #fff;
      }
    </style>
  </defs>
  <path class="cls-1" d="M384.47,159.91c9.83-6.79,19.79-13.39,29.77-19.97-30.01-53.14-106-51.78-138.35.24-13.83,22.24-10.61,52.45-10.69,69.29h37.88c-.34-17.71-3.14-44.92,8.73-59.31,20.93-25.37,58.07-19.71,72.67,9.76Z"/>
  <path class="cls-1" d="M121.45,209.42c-9.57,0-17.33,7.76-17.33,17.33s7.76,17.33,17.33,17.33h143.47v-34.66H121.45Z"/>
  <path class="cls-1" d="M374.65,226.74c0-9.57-7.76-17.33-17.33-17.33h-54.22v34.66h54.22c9.57,0,17.33-7.76,17.33-17.33Z"/>
  <path class="cls-1" d="M121.45,278.73c-9.57,0-17.33,7.76-17.33,17.33s7.76,17.33,17.33,17.33h143.47v-34.66H121.45Z"/>
  <path class="cls-1" d="M357.33,313.38c9.57,0,17.33-7.76,17.33-17.33s-7.76-17.33-17.33-17.33h-54.22v34.66h54.22Z"/>
  <path class="cls-1" d="M357.33,382.69c9.57,0,17.33-7.76,17.33-17.33s-7.76-17.33-17.33-17.33h-54.22v34.66h54.22Z"/>
  <path class="cls-1" d="M104.12,365.37c0,9.57,7.76,17.33,17.33,17.33h143.47v-34.66H121.45c-9.57,0-17.33,7.76-17.33,17.33Z"/>
  <rect class="cls-1" x="264.92" y="244.07" width="38.19" height="34.66"/>
  <rect class="cls-1" x="264.92" y="313.38" width="38.19" height="34.66"/>
</svg>